<?xml version="1.0" encoding="UTF-8"?>
<svg id="Layer_1" xmlns="http://www.w3.org/2000/svg" version="1.1" viewBox="0 0 576 576">
  <!-- Generator: Adobe Illustrator 30.1.0, SVG Export Plug-In . SVG Version: 2.1.1 Build 136)  -->
  <defs>
    <style>
      .st0 {
        fill: #ff5a00;
      }
    </style>
  </defs>
  <path class="st0" d="M336.4,411.8c-14.8,9.5-29.6,15.4-44,18.1-14.4,2.3-28.2,1.3-41.4-3.6-13.1-4.6-25-13.1-35.8-25-10.8-11.8-20-27.6-27.9-47-7.6-19.7-12.2-39.1-13.1-58.1-1.3-18.7.7-36.8,5.6-53.5s12.5-31.9,22.3-45.6,22.3-25.3,36.5-34.5c14.1-9.2,28.6-14.8,43-16.7,14.4-2,28.6-.7,41.7,4.3s25.6,13.8,37.1,25.9c11.5,12.2,21,28.2,28.6,48.3,7.9,19.4,12.2,38.1,13.1,56.5,1,18.4-1,35.5-5.9,51.9-4.9,16.1-12.5,31.2-22.3,44.7-10.2,13.5-22.3,25-37.4,34.5h0ZM333.4,403.9c17.7-11.5,28.9-30.2,33.8-56.2,4.6-25.9,0-56.8-14.1-93.3-5.9-15.8-13.1-30.2-21.7-43.3-8.5-13.1-17.7-24-27.3-32.2-9.9-8.2-20-13.1-31.2-15.1-10.8-1.6-22,1-33.2,8.2-17.7,11.5-28.6,30.5-32.5,57.5-3.9,26.6,2,59.4,17.4,97.5,7.9,20,16.4,36.5,25.3,49.3,9.2,12.5,18.4,22,27.9,27.9s19,8.9,28.2,8.5c9.5,0,18.7-3.3,27.6-8.9h-.3Z"/>
</svg>